Puma Swede på besök i träningslokal och får mer än träning



General
Complete name                    : Puma-Swede.mp4
Format                           : MPEG-4
Format profile                   : Base Media
Codec ID                         : isom
File size                        : 399 MiB
Duration                         : 35mn 35s
Overall bit rate                 : 1 569 Kbps
Encoded date                     : UTC 2012-12-28 17:18:04
Tagged date                      : UTC 2012-12-28 17:18:04
Writing application              : Lavf53.32.100

Video
ID                               : 1
Format                           : AVC
Format/Info                      : Advanced Video Codec
Format profile                   : Main@L3.0
Format settings, CABAC           : Yes
Format settings, ReFrames        : 6 frames
Format settings, GOP             : M=1, N=60
Codec ID                         : avc1
Codec ID/Info                    : Advanced Video Coding
Duration                         : 35mn 35s
Bit rate mode                    : Variable
Bit rate                         : 1 500 Kbps
Width                            : 640 pixels
Height                           : 480 pixels
Display aspect ratio             : 4:3
Frame rate mode                  : Constant
Frame rate                       : 29.970 fps
Color space                      : YUV
Chroma subsampling               : 4:2:0
Bit depth                        : 8 bits
Scan type                        : Progressive
Bits/(Pixel*Frame)               : 0.163
Stream size                      : 379 MiB (95%)
Language                         : English


Audio
ID                               : 2
Format                           : AAC
Format/Info                      : Advanced Audio Codec
Format profile                   : LC
Codec ID                         : 40
Duration                         : 35mn 35s
Bit rate mode                    : Variable
Bit rate                         : 72.0 Kbps
Maximum bit rate                 : 96.0 Kbps
Channel(s)                       : 2 channels
Channel positions                : Front: L R
Sampling rate                    : 44.1 KHz
Compression mode                 : Lossy
Stream size                      : 18.1 MiB (5%)
Language                         : English

 
http://www.shotpix.com/images/20582845472321682089.png 
http://www.shotpix.com/images/81911924002905839582.png 
http://www.shotpix.com/images/17740138879685874058.png 
http://www.shotpix.com/images/64294075934918118257.png 
http://www.shotpix.com/images/77429061104169138495.png 
http://www.shotpix.com/images/71882154124923816884.png 
http://www.shotpix.com/images/31789241895376644425.png